/vscmnt/brussel_pixiu_data/_data_brussel/112/vsc11236/PredSimResults/SUBJ09mtu3D/worker10.mot
version=1
nRows=10
nColumns=50
inDegrees=yes
endheader
                time	         pelvis_tilt	         pelvis_list	     pelvis_rotation	           pelvis_tx	           pelvis_ty	           pelvis_tz	       hip_flexion_r	     hip_adduction_r	      hip_rotation_r	        knee_angle_r	       ankle_angle_r	         mtp_angle_r	       hip_flexion_l	     hip_adduction_l	      hip_rotation_l	        knee_angle_l	       ankle_angle_l	         mtp_angle_l	    lumbar_extension	      lumbar_bending	     lumbar_rotation	 ercspn_r/activation	 intobl_r/activation	 extobl_r/activation	    abd_r/activation	    add_r/activation	hamstrings_r/activation	bifemsh_r/activation	glut_max_r/activation	iliopsoas_r/activation	rect_fem_r/activation	  vasti_r/activation	gastroc_r/activation	 soleus_r/activation	tib_ant_r/activation	 ercspn_l/activation	 intobl_l/activation	 extobl_l/activation	    abd_l/activation	    add_l/activation	hamstrings_l/activation	bifemsh_l/activation	glut_max_l/activation	iliopsoas_l/activation	rect_fem_l/activation	  vasti_l/activation	gastroc_l/activation	 soleus_l/activation	tib_ant_l/activation	
          1.22324310	         -3.56154957	         -1.12153768	          8.65232071	          1.51682144	          0.98905854	         -0.00748174	         28.24545322	         -1.40075474	         -7.30790766	         -6.00415862	          5.12946206	          0.24839662	        -12.63219268	         -2.23177167	         -1.42819287	        -12.64755463	          8.34320513	         32.15752173	        -13.60383983	         -0.30715893	         -3.33478767	          0.02644030	          0.13519678	          0.02485974	          0.05647744	          0.16978109	          0.05080881	          0.10542488	          0.11416682	          0.07721004	          0.02544329	          0.01000001	          0.01706466	          0.01449310	          0.32274547	          0.02824533	          0.01000000	          0.01000003	          0.02575492	          0.01970248	          0.03181464	          0.21860294	          0.01449311	          0.01000005	          0.01000000	          0.00999999	          0.16269124	          0.25801229	          0.00999999	
          1.23547553	         -3.54983912	         -1.13615019	          8.47477156	          1.53668771	          0.98703175	         -0.00694969	         27.91262483	         -1.17966897	         -7.03829581	         -7.42798785	          4.76290034	          0.20990893	        -13.39875485	         -2.39438356	         -1.99266263	        -13.32753266	          7.19165302	         33.87646086	        -13.09886600	          0.02417971	         -3.44929692	          0.02196269	          0.11230145	          0.02064979	          0.12393003	          0.14965237	          0.05976726	          0.08757137	          0.14387860	          0.06413466	          0.02113452	          0.00999999	          0.01417480	          0.01203873	          0.35431663	          0.02346207	          0.00999999	          0.01000000	          0.02139337	          0.01636590	          0.02653197	          0.18716788	          0.01203873	          0.03946508	          0.01000000	          0.00999999	          0.13513977	          0.23154408	          0.00999999	
          1.24770796	         -3.52922443	         -1.15453943	          8.25632592	          1.55662632	          0.98535997	         -0.00635270	         27.58084148	         -0.96050465	         -6.79362898	         -8.85382386	          4.22705101	          0.20663876	        -13.93166473	         -2.56066055	         -2.58226511	        -14.42810339	          5.89020264	         35.57497321	        -12.59153432	          0.36668427	         -3.54142302	          0.01824336	          0.09328341	          0.01715279	          0.17261149	          0.16289619	          0.05453294	          0.07274133	          0.17711130	          0.05327357	          0.01755543	          0.01000000	          0.01177433	          0.00999999	          0.39153768	          0.04989787	          0.00999999	          0.01000000	          0.01777044	          0.01359440	          0.02955199	          0.15547135	          0.01000000	          0.08337205	          0.01000000	          0.00999999	          0.11225410	          0.19233252	          0.00999999	
          1.25994039	         -3.50230860	         -1.17386436	          8.00031963	          1.57630672	          0.98427308	         -0.00568169	         27.37294342	         -0.74756921	         -6.58293398	        -10.46962459	          3.67979098	          0.17257181	        -14.11598467	         -2.73468415	         -3.18162136	        -16.10690536	          4.44075610	         37.14011602	        -12.11912928	          0.71781762	         -3.61005712	          0.02457297	          0.07748603	          0.01424799	          0.20461390	          0.20155330	          0.05506733	          0.06042272	          0.18180157	          0.04425179	          0.01458245	          0.06123004	          0.01000000	          0.00999999	          0.41821501	          0.06864539	          0.00999999	          0.00999999	          0.01476105	          0.07002645	          0.03320360	          0.12914257	          0.00999999	          0.14701045	          0.01000000	          0.00999999	          0.09324407	          0.15976136	          0.00999999	
          1.27217282	         -3.47125098	         -1.18216045	          7.70737972	          1.59558351	          0.98391603	         -0.00495848	         27.20567421	         -0.54625312	         -6.40218308	        -12.16876771	          3.40399086	          0.13226206	        -13.86808416	         -2.91175542	         -3.79752774	        -18.48431266	          2.85366514	         38.37032092	        -11.69658919	          1.06541412	         -3.65328926	          0.02041160	          0.06436391	          0.01183512	          0.22545161	          0.20142370	          0.05604395	          0.05019025	          0.18655919	          0.03675783	          0.01211295	          0.11881179	          0.01000001	          0.01000001	          0.41876527	          0.09336748	          0.00999999	          0.01000000	          0.01226129	          0.10803549	          0.03770991	          0.10727252	          0.00999999	          0.12211452	          0.00999999	          0.00999999	          0.07745336	          0.13270606	          0.00999999	
          1.28440525	         -3.43903844	         -1.17001621	          7.37576542	          1.61435280	          0.98441223	         -0.00421420	         26.95951815	         -0.35452445	         -6.22975305	        -13.72805285	          3.40828385	          0.10077121	        -13.14748264	         -3.09464492	         -4.45319998	        -21.60903987	          1.21215172	         38.82952228	        -11.33246786	          1.40061398	         -3.66689670	          0.01695494	          0.05346400	          0.00999999	          0.23086588	          0.20471167	          0.06029892	          0.04169062	          0.18116441	          0.03053296	          0.01006165	          0.15076267	          0.01000011	          0.01169824	          0.40023435	          0.09305794	          0.00999999	          0.01000000	          0.01018487	          0.13798286	          0.04327209	          0.08910612	          0.00999999	          0.10143465	          0.00999999	          0.00999999	          0.06433677	          0.11023253	          0.00999999	
          1.29663768	         -3.40725154	         -1.12879373	          7.00382947	          1.63257783	          0.98575820	         -0.00348227	         26.56330106	         -0.17404120	         -6.04112434	        -14.99698805	          3.58861851	          0.08254878	        -11.95620427	         -3.28907342	         -5.13265277	        -25.44702200	         -0.51443254	         38.29654362	        -11.02834240	          1.71608437	         -3.64649053	          0.01408365	          0.04440997	          0.00999999	          0.22573440	          0.20607394	          0.06761191	          0.03463040	          0.16134204	          0.02536226	          0.01000000	          0.17757454	          0.01000001	          0.00999999	          0.37484380	          0.07729882	          0.00999999	          0.01668740	          0.00999999	          0.17269191	          0.04713090	          0.07401616	          0.00999999	          0.08425688	          0.00999999	          0.00999999	          0.05344146	          0.09156485	          0.02025035	
          1.30887012	         -3.37648556	         -1.05194826	          6.59098128	          1.65025454	          0.98782284	         -0.00278875	         25.98098660	         -0.00890655	         -5.81288667	        -15.89791951	          3.87957925	          0.07629658	        -10.34142573	         -3.49606053	         -5.80257826	        -29.87521522	         -2.31609906	         36.55730164	        -10.78353744	          2.00522662	         -3.58910692	          0.01169862	          0.03688922	          0.00999999	          0.20531318	          0.17190905	          0.07162157	          0.02876581	          0.13401906	          0.02106721	          0.01000000	          0.19712619	          0.01000003	          0.01000000	          0.34132197	          0.07584971	          0.03947873	          0.06219387	          0.00999999	          0.16205535	          0.04795980	          0.06148166	          0.00999999	          0.06998813	          0.00999999	          0.00999999	          0.04439124	          0.07605851	          0.06547224	
          1.32110255	         -3.34700077	         -0.93879325	          6.14556692	          1.66731923	          0.99040770	         -0.00212530	         25.24554734	          0.13523862	         -5.52648114	        -16.47827431	          4.26262693	          0.09731418	         -8.38219157	         -3.71065264	         -6.40775051	        -34.74873936	         -3.88116271	         33.21529298	        -10.60728930	          2.25891198	         -3.50058095	          0.01000000	          0.03064210	          0.00999999	          0.18051804	          0.14279657	          0.06966082	          0.02389438	          0.11132319	          0.01749951	          0.01000001	          0.20763614	          0.01000001	          0.00999999	          0.30870622	          0.10952930	          0.07981128	          0.11739169	          0.01175837	          0.13461157	          0.04634393	          0.05106986	          0.01000001	          0.05813577	          0.01000002	          0.00999999	          0.03687367	          0.06317814	          0.17335667	
          1.33333498	         -3.31844947	         -0.80574081	          5.66762628	          1.68373068	          0.99328229	         -0.00148233	         24.40990197	          0.26766739	         -5.18515955	        -16.81132679	          4.66638696	          0.16211275	         -6.20804588	         -3.88062296	         -6.83494051	        -39.82849101	         -4.70344968	         28.60008611	        -10.50485393	          2.48448939	         -3.37681125	          0.01000000	          0.02545292	          0.00999999	          0.15634147	          0.11903054	          0.06685516	          0.01984791	          0.09247084	          0.01453600	          0.01000001	          0.20138530	          0.01000001	          0.00999999	          0.27622920	          0.11379832	          0.08423660	          0.14445690	          0.01203875	          0.11181535	          0.03849569	          0.04242128	          0.01000001	          0.04829058	          0.01000003	          0.00999999	          0.03769259	          0.05247904	          0.18844874	
